<?xml version="1.0" encoding="utf-8"?>
<svg
        version="1.1" xmlns="http://www.w3.org/2000/svg"
        xmlns:xlink="http://www.w3.org/1999/xlink"
			id="Layer_1"
	 		height="100px"
			width="100px"
			left="100px"
			top="100px"  xml:space="preserve">

		<defs>
		<clipPath id="ticket-outline">
<path class="st0" d="M599.2,419.3c2.4,0,4.8-0.1,7.2,0c4.2,0.2,8.5,0.6,12.7,0.9c2.5,0.2,5,0.5,7.5,0.6c7.2,0.3,14.4,0.4,21.5,0.6
		c0.6,0,1.3,0.3,1.9,0.4c5.2,1,10.3,2.7,15.8,1.7c0.9-0.2,1.8,0.2,2.8,0.2c6,0,12,0.4,17.9-0.3c7.9-0.9,15.5-3.8,23.6-3.6
		c4.9,0.1,9.8-0.5,14.7-1.1c6.4-0.7,12.8-1.6,19.3-2.5c2.1-0.3,4.3-0.9,6.3-0.7c4.2,0.4,8.4,1.2,12.8-0.5c-0.4,1-0.6,1.6-1,2.3
		c5.1,0.4,9.3,3.7,14.3,2.6c4.4,1.9,8.6,1,13.2,0c4.7-1.1,4.3-1.9,4.8-5.9c0.2-1.2,1.7,0.3,1.9,1.8c0.2,1.6,1,2.8,2.9,2.4
		c2.3-0.6,4.4-0.1,6.5,1c2.3,1.2,3.8,0.4,4.5-2.1c0.6-2.3,1.3-4.7,1.4-7c0.1-10.3,0-20.5,0-30.8c0-2.5-0.8-4.7-2.7-6.4
		c-2.2-2-3.1-4.6-3.1-7.5c0-5.7-0.1-11.5-0.1-17.2c0.1-26.3,0.3-52.5,0.4-78.8c0-10.7,0-21.3,0-32c0-9,0.1-18.1,0-27.1
		c-0.1-5.7-0.5-11.4-0.5-17.1c0-6,0.4-12,0.5-17.9c0.2-7.5,0.2-14.9,0.4-22.4c0.1-3.4,1.5-6.2,4.8-7.7c2-0.9,2.6-2.5,2.7-4.5
		c0.1-4.1,0.4-8.2,0.4-12.4c0.1-11.3,0.2-22.7,0.3-34c0-2-0.6-3.3-2.6-4c-4.4-1.5-6.2-4.9-6.2-9.3c0.1-8.9,0.4-17.9,0.4-26.8
		c0-7.8,0.2-15.7-0.5-23.5C804.9,17.5,795.1,7,782,5c-4.3-0.7-8.7-1.2-13.1-1.3c-9-0.3-18.1-0.4-27.2-0.4c-8.1,0-16.2,0.4-24.4,0.3
		c-17.5-0.2-34.9-0.7-52.4-0.8c-13-0.1-26.1,0.1-39.1,0.2c-1.2,0-2.4-0.2-3.6-0.2c-4.7-0.2-9.3-0.5-14-0.4
		c-8.2,0.1-16.5,0.5-24.7,0.6c-8.7,0.1-17.3,0-26,0c-1.7,0-3.5-0.2-5.2-0.2c-8.6-0.1-17.3-0.3-25.9-0.3c-6.2,0-12.5,0.1-18.7,0.2
		c-12,0.1-24,0.2-35.9,0.2c-3.5,0-6.9,0.1-10.4,0c-8.1-0.1-16.2-0.4-24.3-0.5c-0.9,0-1.9,0.2-2.8,0.2c-5.7,0.1-11.4,0.4-17.2,0.3
		c-4.5,0-9-0.5-13.6-0.6c-8.5-0.1-17.1-0.3-25.6,0c-7.3,0.3-14.5-0.5-21.8-0.1c-6.5,0.3-13.1-0.9-19.5-0.4
		c-7.6,0.5-15.2,0.1-22.7-0.2c-1.2-0.1-2.4,0.1-3.6,0.1c-5.7,0.2-11.4,0.7-17.2,0.6c-11.6-0.1-23.1-0.5-34.7-0.7
		c-8.8-0.1-17.6-0.1-26.4-0.1c-10.5,0-21,0-31.6,0c-26.2,0.2-52.5-0.5-78.7-0.1c-1.6,0-3.2-0.1-4.8-0.2c-2.5-0.1-5.1-0.4-7.6-0.4
		c-18.7-0.1-37.3-0.1-56-0.1c-4.2,0-8.5-0.4-12.6,1.3c-0.7,0.3-1.6,0.3-2.4,0.2c-2.9-0.6-5.4,0.2-7.9,1.9c-1.7,1.2-3.8,1.8-5.8,2.7
		c-1.2,0.6-2.4,1.1-3.5,1.9c-6.8,5.2-10,12.4-10.5,20.7c-0.6,9.8-0.7,19.7-0.2,29.6c0.3,6.4,0.1,12.8,0.1,19.2
		c0,3.4-0.7,6.8-3.7,8.9c-2.2,1.5-2.5,3.4-2.6,5.9c-0.2,8.1-0.6,16.2-0.7,24.3c-0.2,7.1-0.2,14.1-0.2,21.2c0,1.9,0.1,3.8,1.9,4.9
		c3.6,2.2,4.5,5.5,4.5,9.6c-0.1,14.1,0,28.3,0,42.4c-0.2,39.6-0.4,79.1-0.6,118.7c-0.1,15.2,0,30.4,0,45.6c0,2.1-0.1,4.3-0.5,6.4
		c-0.4,2.6-1.9,4.7-4.4,5.2c-3.5,0.7-4,3-3.9,5.9C0.7,392,0.9,407.1,1,422.1c0,2.6,0.5,4.6,3.4,5.6c1.3,0.4,2.4,1.6,3.4,2.7
		c2.1,2.2,4.7,2.9,7.6,2.7c4-0.3,8-0.6,12-0.8c8.5-0.5,16.9,0.9,25.4,1.4c0.5,0,1.1,0.1,1.6,0.3c4.1,1.2,8.1,2.5,12.2,3.6
		c1.8,0.5,3.6,1.1,5.4,1.4c10.1,1.3,20.3,2.6,30.5,3.6c1.7,0.2,3.7-0.5,5.3-1.2c2.5-1.1,4.8-2.8,7.3-4c1.1-0.6,2.5-1.1,3.8-1
		c5.8,0.6,11.6,1.4,17.4,2.3c3.3,0.5,6.5,0.9,9.6,2.5c5.1,2.8,10.6,4,16.6,3.4c1.8-0.2,3.8,0,5.6,0.4c5.6,1.3,10.7-0.1,15.3-2.9
		c3.3-2,6.6-2.3,10.3-2.3c5.6-0.1,11,3.2,16.7,0.4c0.3-0.2,0.8,0.1,1.2,0.1c1.7,0.1,3.4,0.2,5.1,0.4c2.1,0.3,4.4,0.3,6.2,1.1
		c4.6,2,9.3,1.8,14,1.8c1.1,0,2.3,0.3,3.4,0.6c3.3,0.9,6.6,2,9.9,2.9c1.7,0.5,3.2,0,4-1.8c0,0,0,0,0,0c0.3,0.1,0.5,0.2,0.8,0.3
		c4.7,1.8,9.4,3.7,14.6,1c1.9-1,4.2-0.8,5.4,1.8c0.3,0.6,1.1,1.3,1.8,1.4c4,0.9,8.1,2,12.2,0.9c5.4-1.5,10.7-3.2,15.9-5.1
		c5.2-1.9,10.4-2,15.7-0.5c1.4,0.4,3,0.6,4.3,0.2c3.7-1.1,7.3-2.4,10.9-3.8c4.4-1.7,8.3-4.8,13.4-4.8c0.5,0,1-0.4,1.5-0.6
		c6.2-3.4,13.2-4.6,20-4.7c8.4-0.1,17-1.4,25.4,0.2c0.8,0.1,1.6,0,2.4-0.1c6.1-0.8,12.1-1.8,18.2-2.5c1.7-0.2,3.4,0.1,5.1,0.3
		c1.2,0.1,2.4,0.6,3.5,0.6c5.2-0.1,10.4,0.1,15.5-0.4c5.7-0.6,11.4-1.5,16.4-4.6c2.2-1.3,4.6-1.6,7.3-1.7c4-0.1,8-0.3,11.8-1.3
		c4.2-1.1,8.4-1,12.7-1.1c4-0.1,7.9-0.5,11.9-0.8c2.1-0.2,4.2-0.4,6.4-0.6c3.9-0.4,7.8-0.7,11.7-1.1c-0.4-0.8,7-0.3,11.2-0.9
		c0.3-2.3,2.6-2.9,2.6-2.5c0,0.7,0.5,1.7,1,1.9c1.4,0.4,2.9,0.7,4.3,0.7c7.9-0.3,15.9,0.5,23.8-0.7c0.9-0.1,1.9,0.1,2.8,0.2
		c4.2,0.7,8.3,1.5,12.5,2.1c4.2,0.5,8.4,0.4,13.2-0.4C590.1,415.1,592.9,419.3,599.2,419.3z"/>
			</clipPath>
		</defs>
</svg>